<mxfile host="65bd71144e">
    <diagram id="D5N5YZcubjOMPb2AN8Mk" name="第 1 页">
        <mxGraphModel dx="2160" dy="1111" grid="1" gridSize="10" guides="1" tooltips="1" connect="1" arrows="1" fold="1" page="1" pageScale="1" pageWidth="3300" pageHeight="2339" math="0" shadow="0">
            <root>
                <mxCell id="0"/>
                <mxCell id="1" parent="0"/>
                <mxCell id="5" style="edgeStyle=none;html=1;exitX=0.5;exitY=1;exitDx=0;exitDy=0;entryX=0.5;entryY=0;entryDx=0;entryDy=0;fontSize=21;" parent="1" source="2" target="3" edge="1">
                    <mxGeometry relative="1" as="geometry"/>
                </mxCell>
                <mxCell id="23" style="edgeStyle=none;html=1;exitX=0;exitY=0.5;exitDx=0;exitDy=0;fontSize=18;" parent="1" source="2" target="22" edge="1">
                    <mxGeometry relative="1" as="geometry"/>
                </mxCell>
                <mxCell id="2" value="&lt;font style=&quot;font-size: 21px&quot;&gt;_list_obj_t&amp;nbsp; &amp;nbsp;&lt;/font&gt;" style="rounded=0;whiteSpace=wrap;html=1;" parent="1" vertex="1">
                    <mxGeometry x="387.5" y="380" width="160" height="50" as="geometry"/>
                </mxCell>
                <mxCell id="17" style="edgeStyle=none;html=1;exitX=1;exitY=0.5;exitDx=0;exitDy=0;entryX=0;entryY=0.5;entryDx=0;entryDy=0;fontSize=18;" parent="1" source="3" target="16" edge="1">
                    <mxGeometry relative="1" as="geometry"/>
                </mxCell>
                <mxCell id="24" style="edgeStyle=none;html=1;exitX=0;exitY=0.5;exitDx=0;exitDy=0;entryX=1;entryY=0.5;entryDx=0;entryDy=0;fontSize=18;" parent="1" source="3" target="20" edge="1">
                    <mxGeometry relative="1" as="geometry"/>
                </mxCell>
                <mxCell id="3" value="_vector_obj_t" style="rounded=0;whiteSpace=wrap;html=1;fontSize=21;" parent="1" vertex="1">
                    <mxGeometry x="387.5" y="540" width="160" height="60" as="geometry"/>
                </mxCell>
                <mxCell id="6" value="派生" style="text;html=1;align=center;verticalAlign=middle;resizable=0;points=[];autosize=1;strokeColor=none;fillColor=none;fontSize=21;" parent="1" vertex="1">
                    <mxGeometry x="457.5" y="465" width="60" height="30" as="geometry"/>
                </mxCell>
                <mxCell id="7" value="&lt;div style=&quot;background-color: rgb(255 , 255 , 255) ; font-family: &amp;#34;consolas&amp;#34; , &amp;#34;courier new&amp;#34; , monospace ; font-size: 18px ; line-height: 19px&quot;&gt;&lt;div&gt;vector_insert&lt;br&gt;&lt;/div&gt;&lt;div&gt;vector_remove&lt;/div&gt;&lt;div&gt;vector_find&lt;/div&gt;&lt;div&gt;vector_get&lt;/div&gt;&lt;div&gt;vector_set&lt;/div&gt;&lt;div&gt;vector_length&lt;/div&gt;&lt;div&gt;vector_begin&lt;/div&gt;&lt;div&gt;vector_end&lt;/div&gt;&lt;div&gt;vector_next&lt;/div&gt;&lt;div&gt;vector_pre&lt;/div&gt;&lt;/div&gt;" style="rounded=0;whiteSpace=wrap;html=1;fontSize=21;strokeColor=#000000;" parent="1" vertex="1">
                    <mxGeometry x="1270" y="20" width="182.5" height="210" as="geometry"/>
                </mxCell>
                <mxCell id="8" value="&lt;font style=&quot;font-size: 18px&quot;&gt;&lt;span style=&quot;background-color: rgb(255 , 255 , 255) ; font-family: &amp;#34;consolas&amp;#34; , &amp;#34;courier new&amp;#34; , monospace&quot;&gt;base_class =&amp;nbsp;&lt;/span&gt;NULL&lt;/font&gt;" style="rounded=0;whiteSpace=wrap;html=1;fontSize=21;" parent="1" vertex="1">
                    <mxGeometry x="1270" y="230" width="182.5" height="40" as="geometry"/>
                </mxCell>
                <mxCell id="9" value="vector_construct" style="rounded=0;whiteSpace=wrap;html=1;fontSize=18;strokeColor=#000000;" parent="1" vertex="1">
                    <mxGeometry x="1270" y="270" width="182.5" height="40" as="geometry"/>
                </mxCell>
                <mxCell id="10" value="vector_destruct" style="rounded=0;whiteSpace=wrap;html=1;fontSize=18;strokeColor=#000000;" parent="1" vertex="1">
                    <mxGeometry x="1270" y="310" width="182.5" height="40" as="geometry"/>
                </mxCell>
                <mxCell id="11" value="sizeof(_vector_obj_t)" style="rounded=0;whiteSpace=wrap;html=1;fontSize=18;strokeColor=#000000;" parent="1" vertex="1">
                    <mxGeometry x="1270" y="350" width="182.5" height="40" as="geometry"/>
                </mxCell>
                <mxCell id="12" value="&quot;vector&quot;" style="rounded=0;whiteSpace=wrap;html=1;fontSize=18;strokeColor=#000000;" parent="1" vertex="1">
                    <mxGeometry x="1270" y="390" width="182.5" height="40" as="geometry"/>
                </mxCell>
                <mxCell id="13" value="&lt;div style=&quot;background-color: rgb(255 , 255 , 255) ; font-family: &amp;#34;consolas&amp;#34; , &amp;#34;courier new&amp;#34; , monospace ; line-height: 19px&quot;&gt;&lt;font style=&quot;font-size: 20px&quot;&gt;class_p&lt;/font&gt;&lt;/div&gt;" style="rounded=0;whiteSpace=wrap;html=1;fontSize=18;strokeColor=#000000;" parent="1" vertex="1">
                    <mxGeometry x="1060" y="200" width="120" height="40" as="geometry"/>
                </mxCell>
                <mxCell id="51" style="edgeStyle=none;html=1;exitX=1;exitY=0.5;exitDx=0;exitDy=0;entryX=0;entryY=0.5;entryDx=0;entryDy=0;fontSize=20;" parent="1" source="16" target="41" edge="1">
                    <mxGeometry relative="1" as="geometry">
                        <Array as="points">
                            <mxPoint x="792.5" y="570"/>
                            <mxPoint x="792.5" y="255"/>
                        </Array>
                    </mxGeometry>
                </mxCell>
                <mxCell id="52" style="edgeStyle=none;html=1;exitX=1;exitY=0.5;exitDx=0;exitDy=0;entryX=0;entryY=0.5;entryDx=0;entryDy=0;fontSize=20;" parent="1" source="16" target="26" edge="1">
                    <mxGeometry relative="1" as="geometry">
                        <Array as="points">
                            <mxPoint x="792.5" y="570"/>
                            <mxPoint x="792.5" y="713"/>
                        </Array>
                    </mxGeometry>
                </mxCell>
                <mxCell id="53" style="edgeStyle=none;html=1;exitX=1;exitY=0.5;exitDx=0;exitDy=0;entryX=0;entryY=0.5;entryDx=0;entryDy=0;fontSize=20;" parent="1" source="16" target="27" edge="1">
                    <mxGeometry relative="1" as="geometry">
                        <Array as="points">
                            <mxPoint x="792.5" y="570"/>
                            <mxPoint x="792.5" y="889"/>
                        </Array>
                    </mxGeometry>
                </mxCell>
                <mxCell id="55" style="edgeStyle=none;html=1;exitX=1;exitY=0.5;exitDx=0;exitDy=0;entryX=0;entryY=0.5;entryDx=0;entryDy=0;fontSize=20;" parent="1" source="16" target="47" edge="1">
                    <mxGeometry relative="1" as="geometry">
                        <Array as="points">
                            <mxPoint x="792.5" y="570"/>
                            <mxPoint x="792.5" y="1015"/>
                        </Array>
                    </mxGeometry>
                </mxCell>
                <mxCell id="16" value="_vector_obj_t list;" style="rounded=0;whiteSpace=wrap;html=1;fontSize=18;strokeColor=#000000;" parent="1" vertex="1">
                    <mxGeometry x="627.5" y="540" width="120" height="60" as="geometry"/>
                </mxCell>
                <mxCell id="20" value="&lt;h1&gt;&lt;div style=&quot;background-color: rgb(255 , 255 , 255) ; font-family: &amp;#34;consolas&amp;#34; , &amp;#34;courier new&amp;#34; , monospace ; font-weight: normal ; font-size: 14px ; line-height: 19px&quot;&gt;&lt;div&gt;&lt;span style=&quot;color: #0000ff&quot;&gt;typedef&lt;/span&gt; &lt;span style=&quot;color: #0000ff&quot;&gt;struct _vector_obj_t&lt;/span&gt;&lt;/div&gt;&lt;div&gt;{&lt;/div&gt;&lt;div&gt;&amp;nbsp; &amp;nbsp; &lt;span style=&quot;color: #2b91af&quot;&gt;list_obj_t&lt;/span&gt; obj;&amp;nbsp; &amp;nbsp; &amp;nbsp; &amp;nbsp; &amp;nbsp; &amp;nbsp; &amp;nbsp; &amp;nbsp; &amp;nbsp; &amp;nbsp; &amp;nbsp;&lt;/div&gt;&lt;div&gt;&amp;nbsp; &amp;nbsp; &lt;span style=&quot;color: #0000ff&quot;&gt;char&lt;/span&gt; *array;&lt;/div&gt;&lt;div&gt;&amp;nbsp; &amp;nbsp; &lt;span style=&quot;color: #0000ff&quot;&gt;int&lt;/span&gt; array_length;&lt;/div&gt;&lt;div&gt;&amp;nbsp; &amp;nbsp; &lt;span style=&quot;color: #2b91af&quot;&gt;list_node_t&lt;/span&gt; *current;&lt;/div&gt;&lt;div&gt;} &lt;span style=&quot;color: #2b91af&quot;&gt;vector_obj_t&lt;/span&gt;;&lt;/div&gt;&lt;/div&gt;&lt;/h1&gt;" style="text;html=1;strokeColor=none;fillColor=none;spacing=5;spacingTop=-20;whiteSpace=wrap;overflow=hidden;rounded=0;fontSize=18;" parent="1" vertex="1">
                    <mxGeometry x="50" y="490" width="320" height="160" as="geometry"/>
                </mxCell>
                <mxCell id="22" value="&lt;h1&gt;&lt;div style=&quot;background-color: rgb(255 , 255 , 255) ; font-family: &amp;#34;consolas&amp;#34; , &amp;#34;courier new&amp;#34; , monospace ; font-weight: normal ; font-size: 14px ; line-height: 19px&quot;&gt;&lt;div&gt;&lt;span style=&quot;color: #0000ff&quot;&gt;struct&lt;/span&gt; &lt;span style=&quot;color: #2b91af&quot;&gt;_list_obj_t&lt;/span&gt;&lt;/div&gt;&lt;div&gt;{&lt;/div&gt;&lt;div&gt;&amp;nbsp; &amp;nbsp; &lt;span style=&quot;color: #0000ff&quot;&gt;const&lt;/span&gt; &lt;span style=&quot;color: #2b91af&quot;&gt;list_obj_class_t&lt;/span&gt; *class_p;&lt;/div&gt;&lt;div&gt;&amp;nbsp; &amp;nbsp; &lt;span style=&quot;color: #0000ff&quot;&gt;int&lt;/span&gt; item_size;&lt;/div&gt;&lt;div&gt;&amp;nbsp; &amp;nbsp; &lt;span style=&quot;color: #0000ff&quot;&gt;int&lt;/span&gt; list_length;&lt;/div&gt;&lt;div&gt;};&amp;nbsp; &amp;nbsp; &amp;nbsp; &amp;nbsp; &amp;nbsp; &amp;nbsp; &amp;nbsp; &amp;nbsp; &amp;nbsp; &amp;nbsp; &amp;nbsp; &amp;nbsp; &amp;nbsp; &amp;nbsp; &amp;nbsp; &amp;nbsp; &amp;nbsp; &amp;nbsp; &amp;nbsp;&amp;nbsp;&lt;/div&gt;&lt;/div&gt;&lt;/h1&gt;" style="text;html=1;strokeColor=none;fillColor=none;spacing=5;spacingTop=-20;whiteSpace=wrap;overflow=hidden;rounded=0;fontSize=18;" parent="1" vertex="1">
                    <mxGeometry x="50" y="340" width="315" height="130" as="geometry"/>
                </mxCell>
                <mxCell id="25" value="" style="endArrow=none;dashed=1;html=1;fontSize=18;exitX=1;exitY=0.5;exitDx=0;exitDy=0;entryX=-0.002;entryY=0.953;entryDx=0;entryDy=0;entryPerimeter=0;" parent="1" source="13" target="7" edge="1">
                    <mxGeometry width="50" height="50" relative="1" as="geometry">
                        <mxPoint x="835" y="300" as="sourcePoint"/>
                        <mxPoint x="1255" y="220" as="targetPoint"/>
                    </mxGeometry>
                </mxCell>
                <mxCell id="26" value="array" style="rounded=0;whiteSpace=wrap;html=1;fontSize=18;strokeColor=#000000;" parent="1" vertex="1">
                    <mxGeometry x="855" y="695" width="120" height="35" as="geometry"/>
                </mxCell>
                <mxCell id="44" style="edgeStyle=none;html=1;exitX=1;exitY=0.5;exitDx=0;exitDy=0;entryX=0;entryY=0.5;entryDx=0;entryDy=0;fontSize=20;" parent="1" source="27" target="33" edge="1">
                    <mxGeometry relative="1" as="geometry"/>
                </mxCell>
                <mxCell id="27" value="array_length" style="rounded=0;whiteSpace=wrap;html=1;fontSize=18;strokeColor=#000000;" parent="1" vertex="1">
                    <mxGeometry x="855" y="872.5" width="120" height="32.5" as="geometry"/>
                </mxCell>
                <mxCell id="28" value="int" style="rounded=0;whiteSpace=wrap;html=1;fontSize=18;strokeColor=#000000;" parent="1" vertex="1">
                    <mxGeometry x="1052.5" y="652.5" width="130" height="30" as="geometry"/>
                </mxCell>
                <mxCell id="30" value="int" style="rounded=0;whiteSpace=wrap;html=1;fontSize=18;strokeColor=#000000;" parent="1" vertex="1">
                    <mxGeometry x="1052.5" y="682.5" width="130" height="30" as="geometry"/>
                </mxCell>
                <mxCell id="31" value="int" style="rounded=0;whiteSpace=wrap;html=1;fontSize=18;strokeColor=#000000;" parent="1" vertex="1">
                    <mxGeometry x="1052.5" y="712.5" width="130" height="30" as="geometry"/>
                </mxCell>
                <mxCell id="32" value="int" style="rounded=0;whiteSpace=wrap;html=1;fontSize=18;strokeColor=#000000;" parent="1" vertex="1">
                    <mxGeometry x="1052.5" y="742.5" width="130" height="30" as="geometry"/>
                </mxCell>
                <mxCell id="33" value="4" style="rounded=0;whiteSpace=wrap;html=1;fontSize=18;strokeColor=#000000;" parent="1" vertex="1">
                    <mxGeometry x="1052.5" y="873.75" width="130" height="30" as="geometry"/>
                </mxCell>
                <mxCell id="35" value="sizeof(int)" style="rounded=0;whiteSpace=wrap;html=1;fontSize=18;strokeColor=#000000;" parent="1" vertex="1">
                    <mxGeometry x="1270" y="445" width="182.5" height="30" as="geometry"/>
                </mxCell>
                <mxCell id="36" value="0" style="rounded=0;whiteSpace=wrap;html=1;fontSize=18;strokeColor=#000000;" parent="1" vertex="1">
                    <mxGeometry x="1270" y="490" width="182.5" height="30" as="geometry"/>
                </mxCell>
                <mxCell id="39" style="edgeStyle=none;html=1;exitX=1;exitY=0.5;exitDx=0;exitDy=0;entryX=0;entryY=0.5;entryDx=0;entryDy=0;fontSize=20;" parent="1" source="37" target="35" edge="1">
                    <mxGeometry relative="1" as="geometry">
                        <Array as="points">
                            <mxPoint x="1240" y="255"/>
                            <mxPoint x="1240" y="460"/>
                        </Array>
                    </mxGeometry>
                </mxCell>
                <mxCell id="37" value="item_size" style="rounded=0;whiteSpace=wrap;html=1;fontSize=18;strokeColor=#000000;" parent="1" vertex="1">
                    <mxGeometry x="1060" y="240" width="120" height="30" as="geometry"/>
                </mxCell>
                <mxCell id="38" value="list_length" style="rounded=0;whiteSpace=wrap;html=1;fontSize=18;strokeColor=#000000;" parent="1" vertex="1">
                    <mxGeometry x="1060" y="270" width="120" height="30" as="geometry"/>
                </mxCell>
                <mxCell id="56" style="edgeStyle=none;html=1;exitX=1;exitY=0.5;exitDx=0;exitDy=0;entryX=0;entryY=0.5;entryDx=0;entryDy=0;fontSize=20;" parent="1" source="41" target="37" edge="1">
                    <mxGeometry relative="1" as="geometry"/>
                </mxCell>
                <mxCell id="41" value="obj" style="rounded=0;whiteSpace=wrap;html=1;fontSize=18;strokeColor=#000000;" parent="1" vertex="1">
                    <mxGeometry x="855" y="240" width="120" height="30" as="geometry"/>
                </mxCell>
                <mxCell id="47" value="current" style="rounded=0;whiteSpace=wrap;html=1;fontSize=18;strokeColor=#000000;" parent="1" vertex="1">
                    <mxGeometry x="855" y="1000" width="117.5" height="30" as="geometry"/>
                </mxCell>
                <mxCell id="49" value="NULL" style="rounded=0;whiteSpace=wrap;html=1;fontSize=18;strokeColor=#000000;" parent="1" vertex="1">
                    <mxGeometry x="1052.5" y="1000" width="130" height="30" as="geometry"/>
                </mxCell>
                <mxCell id="57" value="" style="endArrow=none;dashed=1;html=1;entryX=0;entryY=0;entryDx=0;entryDy=0;exitX=1;exitY=0.5;exitDx=0;exitDy=0;" edge="1" parent="1" source="26" target="31">
                    <mxGeometry width="50" height="50" relative="1" as="geometry">
                        <mxPoint x="990" y="700" as="sourcePoint"/>
                        <mxPoint x="910" y="660" as="targetPoint"/>
                    </mxGeometry>
                </mxCell>
                <mxCell id="58" value="" style="endArrow=none;dashed=1;html=1;exitX=1;exitY=0.5;exitDx=0;exitDy=0;entryX=0;entryY=0.5;entryDx=0;entryDy=0;" edge="1" parent="1" source="47" target="49">
                    <mxGeometry width="50" height="50" relative="1" as="geometry">
                        <mxPoint x="740" y="780" as="sourcePoint"/>
                        <mxPoint x="790" y="730" as="targetPoint"/>
                    </mxGeometry>
                </mxCell>
                <mxCell id="59" value="" style="endArrow=classic;html=1;entryX=0;entryY=0.5;entryDx=0;entryDy=0;exitX=1;exitY=0.5;exitDx=0;exitDy=0;" edge="1" parent="1" source="38" target="36">
                    <mxGeometry width="50" height="50" relative="1" as="geometry">
                        <mxPoint x="860" y="350" as="sourcePoint"/>
                        <mxPoint x="910" y="300" as="targetPoint"/>
                        <Array as="points">
                            <mxPoint x="1210" y="285"/>
                            <mxPoint x="1210" y="505"/>
                        </Array>
                    </mxGeometry>
                </mxCell>
            </root>
        </mxGraphModel>
    </diagram>
</mxfile>